<?xml version="1.0" encoding="utf-8"?>
<!-- Generator: Adobe Illustrator 24.2.1, SVG Export Plug-In . SVG Version: 6.00 Build 0)  -->
<svg version="1.1" id="twitter" xmlns="http://www.w3.org/2000/svg" xmlns:xlink="http://www.w3.org/1999/xlink" x="0px" y="0px"
	 viewBox="0 0 80.6 80" style="enable-background:new 0 0 80.6 80;" xml:space="preserve">
<style type="text/css">
	.st0{fill:none;stroke:#000000;stroke-width:2;}
</style>
<circle class="st0" cx="40.3" cy="40" r="38.8"/>
<path id="Twitter-12" d="M59.1,29.9c-1.4,0.6-2.9,1-4.4,1.2c1.6-0.9,2.8-2.4,3.3-4.2c-1.5,0.9-3.1,1.5-4.8,1.8
	c-2.9-3.1-7.7-3.2-10.7-0.3c-1.5,1.4-2.4,3.4-2.4,5.5c0,0.6,0.1,1.2,0.2,1.7c-6.1-0.3-11.8-3.2-15.6-7.9c-2,3.5-1,7.9,2.3,10.1
	c-1.2,0-2.4-0.4-3.4-0.9V37c0,3.6,2.6,6.7,6.1,7.4c-1.1,0.3-2.3,0.3-3.4,0.1c1,3.1,3.8,5.2,7.1,5.3c-2.7,2.1-6,3.2-9.4,3.2
	c-0.6,0-1.2,0-1.8-0.1c3.5,2.2,7.5,3.4,11.7,3.4c14,0,21.6-11.6,21.6-21.6c0-0.3,0-0.7,0-1C56.8,32.7,58.1,31.4,59.1,29.9z"/>
</svg>
