<svg data-name="Layer 1" xmlns="http://www.w3.org/2000/svg" width="36.75" height="12.26">
  <path
    d="M1.13 12.26H9a5.81 5.81 0 001-2.28H.19a5.66 5.66 0 00.94 2.28zM36.76 7.13a5.05 5.05 0 00-2.83-4.53C30.55 1.11 24.33.05 18.39.05S6.22 1.06 2.84 2.55A5.05 5.05 0 00.01 7.13 7.61 7.61 0 00.2 8.69h9.76a8.31 8.31 0 00.17-1.56v-.35a1.44 1.44 0 01.84-1.44 18 18 0 017.41-1.54 18 18 0 017.42 1.51 1.44 1.44 0 01.84 1.44v.35a8.31 8.31 0 00.18 1.56h9.76a7.61 7.61 0 00.18-1.53zM26.81 9.98a5.81 5.81 0 00.95 2.28h7.87a5.66 5.66 0 00.94-2.28z"
    fill-rule="evenodd"
  />
</svg>