<?xml version="1.0" encoding="utf-8"?>
<!-- Generator: Adobe Illustrator 24.2.1, SVG Export Plug-In . SVG Version: 6.00 Build 0)  -->
<svg version="1.1"
	 id="Layer_1" xmlns:cc="http://creativecommons.org/ns#" xmlns:dc="http://purl.org/dc/elements/1.1/" xmlns:rdf="http://www.w3.org/1999/02/22-rdf-syntax-ns#"
	 xmlns="http://www.w3.org/2000/svg" xmlns:xlink="http://www.w3.org/1999/xlink" x="0px" y="0px" viewBox="0 0 400 400"
	 style="enable-background:new 0 0 400 400;" xml:space="preserve">
<style type="text/css">
	.st0{clip-path:url(#SVGID_2_);}
	.st1{fill:none;stroke:#000000;stroke-width:10.1064;stroke-miterlimit:13.333;}
</style>
<g>
	<defs>
		<rect id="SVGID_1_" y="0" width="400" height="400"/>
	</defs>
	<clipPath id="SVGID_2_">
		<use xlink:href="#SVGID_1_"  style="overflow:visible;"/>
	</clipPath>
	<path class="st0" d="M200,71.6c-70.9,0-128.4,57.5-128.4,128.4S129.1,328.4,200,328.4S328.3,270.9,328.3,200S270.9,71.6,200,71.6
		 M200,81.8c65.2,0,118.2,53,118.2,118.2c0,65.2-53,118.2-118.2,118.2S81.7,265.2,81.7,200C81.7,134.8,134.8,81.8,200,81.8"/>
	<g class="st0">
		<polyline class="st1" points="251,261 225.5,241 200,261 174.5,241 149,261 		"/>
	</g>
	<g class="st0">
		<path d="M252.1,165c1,2.2,1.5,4.6,1.5,7.1c0,9.8-7.9,17.7-17.7,17.7c-6.7,0-12.6-3.8-15.6-9.3L252.1,165z"/>
	</g>
	<g class="st0">
		<rect x="216" y="161.8" transform="matrix(0.902 -0.4317 0.4317 0.902 -48.8026 118.698)" width="42.1" height="10.1"/>
	</g>
	<g class="st0">
		<path d="M146.7,165c-1,2.2-1.5,4.6-1.5,7.1c0,9.8,7.9,17.7,17.7,17.7c6.7,0,12.6-3.8,15.6-9.3L146.7,165z"/>
	</g>
	<g class="st0">
		<rect x="156.7" y="145.8" transform="matrix(0.4334 -0.9012 0.9012 0.4334 -58.7123 240.2631)" width="10.1" height="42.1"/>
	</g>
</g>
</svg>
