<?xml version="1.0" encoding="UTF-8"?>
<svg width="400" height="400" version="1.1" viewBox="0 0 400 400" xml:space="preserve" xmlns="http://www.w3.org/2000/svg" xmlns:cc="http://creativecommons.org/ns#" xmlns:dc="http://purl.org/dc/elements/1.1/" xmlns:rdf="http://www.w3.org/1999/02/22-rdf-syntax-ns#"><metadata><rdf:RDF><cc:Work rdf:about=""><dc:format>image/svg+xml</dc:format><dc:type rdf:resource="http://purl.org/dc/dcmitype/StillImage"/><dc:title/></cc:Work></rdf:RDF></metadata><defs><clipPath id="clipPath18"><path d="m0 300h300v-300h-300z"/></clipPath></defs><g transform="matrix(1.3333 0 0 -1.3333 0 400)"><g><g clip-path="url(#clipPath18)"><g transform="translate(150 246.27)"><path d="m0 0c-53.167 0-96.268-43.101-96.268-96.268s43.101-96.267 96.268-96.267 96.268 43.1 96.268 96.267-43.101 96.268-96.268 96.268m0-7.58c48.902 0 88.688-39.785 88.688-88.688 0-48.902-39.786-88.687-88.688-88.687s-88.688 39.785-88.688 88.687c0 48.903 39.786 88.688 88.688 88.688"/></g><g transform="translate(105.92 131.05)"><path d="m0 0c6.312-18.278 23.658-31.413 44.082-31.413s37.77 13.135 44.081 31.413" fill="none" stroke="#000" stroke-miterlimit="10" stroke-width="7.58"/></g><g transform="translate(122.71 170.47)"><path d="m0 0c4.361 0 8.145-2.459 10.052-6.063 0.839 1.584 1.318 3.388 1.318 5.305 0 6.28-5.091 11.37-11.37 11.37-6.28 0-11.37-5.09-11.37-11.37 0-1.917 0.478-3.721 1.317-5.305 1.907 3.604 5.691 6.063 10.053 6.063"/></g><g transform="translate(177.29 170.47)"><path d="m0 0c4.362 0 8.146-2.459 10.053-6.063 0.838 1.584 1.317 3.388 1.317 5.305 0 6.28-5.091 11.37-11.37 11.37s-11.37-5.09-11.37-11.37c0-1.917 0.479-3.721 1.317-5.305 1.907 3.604 5.691 6.063 10.053 6.063"/></g></g></g></g></svg>
