<?xml version="1.0" encoding="utf-8"?>
<!-- Generator: Adobe Illustrator 24.2.1, SVG Export Plug-In . SVG Version: 6.00 Build 0)  -->
<svg version="1.1"
	 id="Layer_1" xmlns:cc="http://creativecommons.org/ns#" xmlns:dc="http://purl.org/dc/elements/1.1/" xmlns:rdf="http://www.w3.org/1999/02/22-rdf-syntax-ns#"
	 xmlns="http://www.w3.org/2000/svg" xmlns:xlink="http://www.w3.org/1999/xlink" x="0px" y="0px" viewBox="0 0 400 400"
	 style="enable-background:new 0 0 400 400;" xml:space="preserve">
<style type="text/css">
	.st0{clip-path:url(#SVGID_2_);}
</style>
<g>
	<defs>
		<rect id="SVGID_1_" y="0" width="400" height="400"/>
	</defs>
	<clipPath id="SVGID_2_">
		<use xlink:href="#SVGID_1_"  style="overflow:visible;"/>
	</clipPath>
	<path class="st0" d="M200,71.6c-70.9,0-128.4,57.5-128.4,128.4S129.1,328.4,200,328.4S328.3,270.9,328.3,200S270.9,71.6,200,71.6
		 M200,81.8c65.2,0,118.2,53,118.2,118.2c0,65.2-53,118.2-118.2,118.2S81.7,265.2,81.7,200C81.7,134.8,134.8,81.8,200,81.8"/>
	<g class="st0">
		<path d="M230.7,158.8c8.6,0,15.5,1.9,20.2,5.5c4.5,3.5,6.7,8.5,6.7,15.5c0,4.5-3,18.4-31.1,49.8c-10,11.1-20,21-26.4,27
			c-6.4-6-16.4-15.8-26.4-26.9c-28-31.2-31.1-45.3-31.1-49.9c0-6.9,2.2-12,6.7-15.5c4.7-3.6,11.6-5.5,20.2-5.5
			c6.4,0,11.5,2.8,15.7,8.5c3.6,5,5,10.3,5.1,10.4l0-0.1H210c0,0,1.3-5,4.7-9.9C219,161.7,224.2,158.8,230.7,158.8 M230.7,148.7
			c-24,0-30.5,26.5-30.5,26.5s-6.5-26.5-30.5-26.5c-20.9,0-37.1,9.8-37.1,31.1c0,30.8,67.6,90.6,67.6,90.6s67.6-60.3,67.6-90.6
			C267.8,158.5,251.6,148.7,230.7,148.7L230.7,148.7z"/>
	</g>
</g>
</svg>
