<?xml version="1.0" encoding="UTF-8"?>
<svg width="400" height="400" version="1.1" viewBox="0 0 400 400" xml:space="preserve" xmlns="http://www.w3.org/2000/svg" xmlns:cc="http://creativecommons.org/ns#" xmlns:dc="http://purl.org/dc/elements/1.1/" xmlns:rdf="http://www.w3.org/1999/02/22-rdf-syntax-ns#"><metadata><rdf:RDF><cc:Work rdf:about=""><dc:format>image/svg+xml</dc:format><dc:type rdf:resource="http://purl.org/dc/dcmitype/StillImage"/><dc:title/></cc:Work></rdf:RDF></metadata><defs><clipPath id="clipPath18"><path d="m0 300h300v-300h-300z"/></clipPath></defs><g transform="matrix(1.3333 0 0 -1.3333 0 400)"><g><g clip-path="url(#clipPath18)"><g transform="translate(150 246.27)"><path d="m0 0c-53.167 0-96.268-43.101-96.268-96.268s43.101-96.267 96.268-96.267 96.268 43.1 96.268 96.267-43.101 96.268-96.268 96.268m0-7.58c48.902 0 88.688-39.785 88.688-88.688 0-48.902-39.786-88.687-88.688-88.687s-88.688 39.785-88.688 88.687c0 48.903 39.786 88.688 88.688 88.688"/></g><g transform="translate(194.08 99.637)" fill="none" stroke="#000"><path d="m0 0c-6.312 18.278-23.657 31.413-44.081 31.413s-37.77-13.135-44.082-31.413" fill="none" stroke="#000" stroke-miterlimit="10" stroke-width="7.58"/></g><g transform="translate(134.5 175.47)"><path d="m0 0c0-6.117-4.959-11.077-11.077-11.077-6.117 0-11.076 4.96-11.076 11.077s4.959 11.077 11.076 11.077c6.118 0 11.077-4.96 11.077-11.077"/></g><g transform="translate(188.37 175.47)"><path d="m0 0c0-6.117-4.959-11.077-11.077-11.077-6.117 0-11.076 4.96-11.076 11.077s4.959 11.077 11.076 11.077c6.118 0 11.077-4.96 11.077-11.077"/></g></g></g></g></svg>
