<svg width="400" height="400" viewBox="0 0 400 400" fill="none" xmlns="http://www.w3.org/2000/svg">
<path d="M199.995 71.6481C129.108 71.6481 71.6411 129.115 71.6411 200.002C71.6411 270.89 129.108 328.355 199.995 328.355C270.883 328.355 328.349 270.89 328.349 200.002C328.349 129.115 270.883 71.6481 199.995 71.6481ZM199.995 81.7545C265.196 81.7545 318.243 134.8 318.243 200.002C318.243 265.203 265.196 318.249 199.995 318.249C134.794 318.249 81.7475 265.203 81.7475 200.002C81.7475 134.8 134.794 81.7545 199.995 81.7545" fill="black"/>
<path d="M199.995 81.7545C265.196 81.7545 318.243 134.8 318.243 200.002C318.243 265.203 265.196 318.249 199.995 318.249C134.794 318.249 81.7475 265.203 81.7475 200.002C81.7475 134.8 134.794 81.7545 199.995 81.7545M199.995 71.6481C129.108 71.6481 71.6411 129.115 71.6411 200.002C71.6411 270.89 129.108 328.355 199.995 328.355C270.883 328.355 328.349 270.89 328.349 200.002C328.349 129.115 270.883 71.6481 199.995 71.6481Z" stroke="black" stroke-width="1.3333"/>
<path d="M213.121 172.983C213.121 187.265 224.7 198.845 238.983 198.845V189.088C230.089 189.088 222.879 181.877 222.879 172.983H213.121ZM238.983 147.121C224.7 147.121 213.121 158.7 213.121 172.983H222.879C222.879 164.089 230.089 156.878 238.983 156.878V147.121ZM264.847 172.983C264.847 158.7 253.266 147.121 238.983 147.121V156.878C247.879 156.878 255.09 164.089 255.09 172.983H264.847ZM238.983 198.845C253.267 198.845 264.847 187.266 264.847 172.983H255.09C255.09 181.876 247.878 189.088 238.983 189.088V198.845ZM216.544 173.452C216.544 185.259 226.117 194.83 237.921 194.83V185.073C231.505 185.073 226.301 179.87 226.301 173.452H216.544ZM237.921 152.073C226.116 152.073 216.544 161.643 216.544 173.452H226.301C226.301 167.032 231.505 161.83 237.921 161.83V152.073ZM259.301 173.452C259.301 161.643 249.728 152.073 237.921 152.073V161.83C244.34 161.83 249.544 167.032 249.544 173.452H259.301ZM237.921 194.83C249.728 194.83 259.301 185.26 259.301 173.452H249.544C249.544 179.87 244.34 185.073 237.921 185.073V194.83Z" fill="black"/>
<path d="M188.301 173.032C188.301 187.314 176.723 198.894 162.439 198.894V189.137C171.333 189.137 178.544 181.926 178.544 173.032H188.301ZM162.439 147.17C176.722 147.17 188.301 158.749 188.301 173.032H178.544C178.544 164.137 171.334 156.927 162.439 156.927V147.17ZM136.576 173.032C136.576 158.748 148.156 147.17 162.439 147.17V156.927C153.544 156.927 146.333 164.138 146.333 173.032H136.576ZM162.439 198.894C148.156 198.894 136.576 187.314 136.576 173.032H146.333C146.333 181.925 153.544 189.137 162.439 189.137V198.894ZM184.879 173.501C184.879 185.308 175.306 194.879 163.501 194.879V185.121C169.918 185.121 175.121 179.919 175.121 173.501H184.879ZM163.501 152.121C175.306 152.121 184.879 161.692 184.879 173.501H175.121C175.121 167.081 169.917 161.879 163.501 161.879V152.121ZM142.121 173.501C142.121 161.692 151.694 152.121 163.501 152.121V161.879C157.082 161.879 151.879 167.081 151.879 173.501H142.121ZM163.501 194.879C151.695 194.879 142.121 185.308 142.121 173.501H151.879C151.879 179.918 157.082 185.121 163.501 185.121V194.879Z" fill="black"/>
</svg>
