<?xml version="1.0" encoding="utf-8"?>
<!-- Generator: Adobe Illustrator 24.2.1, SVG Export Plug-In . SVG Version: 6.00 Build 0)  -->
<svg version="1.1"
	 id="Layer_1" xmlns:cc="http://creativecommons.org/ns#" xmlns:dc="http://purl.org/dc/elements/1.1/" xmlns:rdf="http://www.w3.org/1999/02/22-rdf-syntax-ns#"
	 xmlns="http://www.w3.org/2000/svg" xmlns:xlink="http://www.w3.org/1999/xlink" x="0px" y="0px" viewBox="0 0 400 400"
	 style="enable-background:new 0 0 400 400;" xml:space="preserve">
<style type="text/css">
	.st0{clip-path:url(#SVGID_2_);}
	.st1{fill:none;stroke:#000000;stroke-width:10.1064;stroke-linecap:round;stroke-linejoin:round;stroke-miterlimit:13.333;}
</style>
<g>
	<defs>
		<rect id="SVGID_1_" y="0" width="400" height="400"/>
	</defs>
	<clipPath id="SVGID_2_">
		<use xlink:href="#SVGID_1_"  style="overflow:visible;"/>
	</clipPath>
	<path class="st0" d="M200,71.6c-70.9,0-128.4,57.5-128.4,128.4S129.1,328.4,200,328.4S328.3,270.9,328.3,200S270.9,71.6,200,71.6
		 M200,81.8c65.2,0,118.2,53,118.2,118.2c0,65.2-53,118.2-118.2,118.2S81.7,265.2,81.7,200C81.7,134.8,134.8,81.8,200,81.8"/>
	<g class="st0">
		<path class="st1" d="M138.2,237.2l30-21.8l13.4-77.9c0.8-4.4,4.6-7.6,9-7.6h0c5.1,0,9.2,4.1,9.2,9.2v95.9c0,5.8-3,11.1-8,14
			l-10.4,3.4L161,269.2L138.2,237.2z"/>
		<polygon points="138.2,307.5 117.4,287.4 93.5,258.4 133.7,234 167.1,280.2 		"/>
	</g>
	<g class="st0">
		<path class="st1" d="M261.2,237.2l-30-21.8l-13.4-77.9c-0.8-4.4-4.6-7.6-9-7.6h0c-5.1,0-9.2,4.1-9.2,9.2v95.9c0,5.8,3,11.1,8,14
			l10.4,3.4l20.4,16.9L261.2,237.2z"/>
		<polygon points="261.2,307.5 282,287.4 305.8,258.4 265.7,234 232.3,280.2 		"/>
	</g>
</g>
</svg>
